<?xml version="1.0" standalone="no"?>
<!DOCTYPE svg PUBLIC "-//W3C//DTD SVG 20010904//EN"
 "http://www.w3.org/TR/2001/REC-SVG-20010904/DTD/svg10.dtd">
<svg version="1.0" xmlns="http://www.w3.org/2000/svg"
 width="512.000000pt" height="512.000000pt" viewBox="0 0 512.000000 512.000000"
 preserveAspectRatio="xMidYMid meet">
<metadata>
Created by potrace 1.14, written by Peter Selinger 2001-2017
</metadata>
<g transform="translate(0.000000,512.000000) scale(0.100000,-0.100000)"
fill="#000000" stroke="none">
<path d="M2330 5109 c-503 -47 -988 -244 -1375 -556 -543 -438 -879 -1071
-945 -1778 -59 -637 148 -1313 557 -1820 438 -543 1071 -879 1778 -945 637
-59 1313 148 1820 557 544 439 879 1070 945 1778 59 637 -148 1313 -557 1820
-489 606 -1240 962 -2013 954 -69 -1 -163 -5 -210 -10z m-445 -1506 c15 -43
49 -121 76 -173 26 -52 47 -95 46 -97 -2 -1 -40 22 -85 52 l-82 55 0 -405 c0
-223 -2 -405 -5 -405 -3 0 -177 72 -387 161 -211 89 -389 163 -395 166 -10 4
-13 -159 -13 -795 0 -754 1 -801 18 -806 9 -3 190 -39 402 -81 l385 -77 357
80 358 80 132 -27 c73 -15 237 -51 363 -80 l230 -53 395 79 395 79 0 924 0
924 -397 120 -397 119 -80 -52 c-44 -28 -82 -51 -85 -51 -3 0 8 22 24 49 40
65 84 164 105 234 9 31 18 57 21 57 2 0 238 -72 524 -160 286 -88 522 -160
525 -160 8 0 6 -2160 -2 -2160 -5 0 -239 -54 -521 -119 l-513 -119 -359 80
-360 80 -360 -80 -359 -80 -513 119 c-282 65 -516 119 -520 119 -5 0 -8 485
-8 1079 l0 1078 123 38 c67 20 300 93 517 160 217 68 400 123 406 124 6 1 24
-34 39 -76z"/>
</g>
</svg>
